<svg xmlns="http://www.w3.org/2000/svg" width="230" height="230" viewBox="0 0 230 230">
  <defs>
    <linearGradient id="cash4sms-a" x1="121.925%" y1="17.911%" y2="117.911%">
      <stop offset="0%" stop-color="#50D3FB"/>
      <stop offset="100%" stop-color="#528EE7"/>
    </linearGradient>
    <linearGradient id="cash4sms-b" x1="121.925%" y1="17.911%" y2="117.911%">
      <stop offset="0%" stop-color="#FFF" stop-opacity=".599"/>
      <stop offset="100%" stop-color="#FFF"/>
    </linearGradient>
  </defs>
  <g fill="none" fill-rule="evenodd">
    <path fill="url(#cash4sms-a)" d="M4.94883581,68.4555528 C12.7294708,30.8147469 36.6687211,9.84990535 74.0103843,3.5162133 C101.614475,-1.1644037 129.228662,-1.2235024 156.785639,3.64791897 C195.234494,10.4442694 218.347557,32.6316097 225.710891,70.8414517 C231.399976,100.372228 231.489157,130.217071 225.62171,159.719142 C217.750211,197.099913 193.193424,220.173734 155.989739,226.483787 C128.385648,231.164404 100.771461,231.223502 73.2144846,226.352081 C34.7656289,219.555731 11.5499238,196.260712 4.18658935,158.05087 C-1.79191325,128.325912 -1.21644241,98.2919534 4.94883581,68.4555528 Z"/>
    <path fill="url(#cash4sms-b)" d="M31.4565649,0.936560076 C30.6830049,1.51303315 30.1754907,2.29895521 29.9340225,3.29432624 L23.8687478,26.9427782 L12.9034637,26.9427782 C11.2612874,27.0644863 9.93701052,27.4620011 8.93063297,28.1353226 C7.92425543,28.808644 7.21474044,29.7718469 6.802088,31.0249312 L4.84831252,38.4419663 L20.9522349,38.4419663 L19.0303537,45.9267282 L8.93063297,45.9267282 C6.8466056,45.9426573 5.31829371,46.3107441 4.3456973,47.0309888 C3.37310089,47.7512334 2.56612505,48.8337778 1.92476977,50.2786221 L0,57.5023569 L16.0626077,57.5023569 L9.83440689,81.9225549 C9.59762262,83.3850493 9.68229808,84.406507 10.0884332,84.9869278 C10.4945684,85.5673486 11.4329119,86.0079203 12.9034637,86.3086426 L38.1034542,86.3086426 L31.947176,110.280838 C31.9028182,111.158645 32.2252637,111.702714 32.9145124,111.913045 C33.6037611,112.123376 34.5030779,111.952139 35.6124627,111.399335 L70.2465094,86.3086426 L117.110334,86.3086426 C118.522778,86.2569564 119.768825,85.8163848 120.848475,84.9869278 C121.928125,84.1574708 122.585107,83.1360132 122.819419,81.9225549 L142.890915,5.00920224 C143.19574,3.55763378 142.861718,2.30475116 141.888847,1.25055439 C140.915976,0.196357614 139.211652,-0.191336258 136.775875,0.0874727718 L34.2372478,0.0874727718 C33.1570192,0.0770578958 32.2301249,0.360086997 31.4565649,0.936560076 Z M42.2820838,11.9081842 L38.363114,26.4797441 L102.857585,26.4797441 L100.929273,33.1937242 C100.480496,34.5082479 99.7315684,35.5153851 98.6824889,36.2151358 C97.1088695,37.2647619 94.9776974,37.5923386 94.3347865,37.5923386 C93.9061792,37.5923386 74.3971202,37.5923386 35.8076097,37.5923386 L33.8842912,45.6816455 L97.5140881,45.6816455 L95.8095806,52.7091568 C95.186493,54.2280775 94.3366702,55.3636908 93.2601124,56.1159969 C92.1835546,56.868303 90.7470044,57.330423 88.9504618,57.5023569 L31.2156967,57.5023569 L27.2587961,74.2934328 C44.491232,74.541532 53.10745,74.6655815 53.10745,74.6655815 C53.10745,74.6655815 51.9511385,78.9075605 49.6385155,87.3915183 L64.6110895,76.0301999 C65.2924521,75.4319584 66.1318333,74.9770856 67.129233,74.6655815 C68.1266327,74.3540775 69.1408932,74.2300279 70.1720146,74.2934328 L111.287955,74.2934328 L125.814236,17.4901653 L127.186007,12.126023 L121.67854,12.1118925 L42.2820838,11.9081842 Z" transform="translate(44 66)"/>
  </g>
</svg>
